Coordinates
version=1
nRows=25
nColumns=33
inDegrees=yes

Units are S.I. units (second, meters, Newtons, ...)
Angles are in degrees.

endheader
time	ground_thorax_rot_x	ground_thorax_rot_y	ground_thorax_rot_z	ground_thorax_tx	ground_thorax_ty	ground_thorax_tz	clav_prot_r	clav_elev_r	scapula_abduction_r	scapula_elevation_r	scapula_upward_rot_r	scapula_winging_r	shoulder_elv_r	plane_of_elev_r	axial_rot_r	elbow_flexion_r	pro_sup_r	wrist_flex_r	wrist_dev_r	clav_prot_l	clav_elev_l	scapula_abduction_l	scapula_elevation_l	scapula_upward_rot_l	scapula_winging_l	shoulder_elv_l	plane_of_elev_l	axial_rot_l	elbow_flexion_l	pro_sup_l	wrist_flex_l	wrist_dev_l	
8.0200	18.321239	34.477462	57.785083	21.887001	782.726832	-36.965505	12.934690	35.830013	25.198041	45.000000	-45.000000	-1879.131194	-1729.776071	22.352995	180.000000	1083.151019	-168.521119	12.345258	13.703664	-14.058682	-45.000000	-34.955350	45.000000	-45.000000	-3858.926006	-2085.778197	24.705446	26.044702	-10.871872	45.670669	11.750124	-13.309794	
8.0300	18.364468	34.524988	57.757747	21.699887	782.820377	-37.036535	12.838585	35.832061	25.181721	45.000000	-45.000000	-1879.160548	-1729.724752	22.372317	180.000000	1083.150355	-168.655685	12.305977	13.689171	-13.952977	-45.000000	-34.975252	45.000000	-45.000000	-3858.904619	-2085.769316	24.736694	26.147186	-10.894385	45.573150	11.766536	-13.293820	
8.0400	18.343741	34.614575	57.793923	21.494228	782.926585	-37.108869	12.696435	35.773122	25.109664	45.000000	-45.000000	-1879.208638	-1729.673795	22.387094	180.000000	1083.146556	-168.801207	12.300961	13.643259	-13.889315	-45.000000	-35.077647	45.000000	-45.000000	-3858.908105	-2085.756516	24.704469	26.283026	-10.923151	45.467182	11.762139	-13.357797	
8.0500	18.372750	34.659505	57.763200	21.246167	783.060141	-37.184937	12.642124	35.753129	25.095235	45.000000	-45.000000	-1879.246699	-1729.650559	22.408341	180.000000	1083.150892	-168.945504	12.279805	13.612497	-13.850605	-45.000000	-35.131767	45.000000	-45.000000	-3858.904557	-2085.723756	24.710704	26.399450	-10.943611	45.376434	11.770791	-13.389519	
8.0600	18.421068	34.692055	57.704855	20.954655	783.223352	-37.265028	12.621785	35.747569	25.106765	45.000000	-45.000000	-1879.290350	-1729.639300	22.428356	180.000000	1083.150461	-169.094635	12.256638	13.582654	-13.823003	-45.000000	-35.178469	45.000000	-45.000000	-3858.902543	-2085.687850	24.727747	26.515042	-10.957596	45.295175	11.785080	-13.411980	
8.0700	18.480526	34.718663	57.629333	20.615378	783.420588	-37.350213	12.627230	35.741615	25.134579	45.000000	-45.000000	-1879.343967	-1729.637315	22.448491	180.000000	1083.141364	-169.250217	12.238403	13.557100	-13.814718	-45.000000	-35.226894	45.000000	-45.000000	-3858.902973	-2085.647910	24.747357	26.639039	-10.966746	45.219703	11.799891	-13.443818	
8.0800	18.556552	34.739581	57.535495	20.229077	783.653588	-37.441720	12.643440	35.753605	25.182245	45.000000	-45.000000	-1879.406050	-1729.634076	22.463987	180.000000	1083.119307	-169.412669	12.217861	13.530439	-13.792829	-45.000000	-35.266130	45.000000	-45.000000	-3858.900982	-2085.610783	24.779057	26.768739	-10.965706	45.151339	11.819049	-13.454646	
8.0900	18.628073	34.766886	57.444021	19.798423	783.923075	-37.541257	12.653672	35.753507	25.227251	45.000000	-45.000000	-1879.479834	-1729.624795	22.480753	180.000000	1083.090230	-169.583527	12.204303	13.506905	-13.771694	-45.000000	-35.316684	45.000000	-45.000000	-3858.898934	-2085.570434	24.809933	26.916635	-10.962690	45.082348	11.835227	-13.483578	
8.1000	18.708192	34.791409	57.345239	19.324474	784.230720	-37.651518	12.669466	35.773784	25.282431	45.000000	-45.000000	-1879.554747	-1729.604021	22.496693	180.000000	1083.057940	-169.762423	12.186770	13.475277	-13.729239	-45.000000	-35.348789	45.000000	-45.000000	-3858.891944	-2085.522368	24.856562	27.072095	-10.950917	45.017853	11.854322	-13.486957	
8.1100	18.788553	34.815672	57.244824	18.807596	784.578607	-37.775636	12.683881	35.783366	25.341031	45.000000	-45.000000	-1879.633185	-1729.577631	22.516228	180.000000	1083.026417	-169.949815	12.170684	13.450577	-13.685869	-45.000000	-35.388748	45.000000	-45.000000	-3858.881020	-2085.468716	24.904008	27.242199	-10.934318	44.953598	11.868704	-13.506302	
8.1200	18.872601	34.836837	57.137917	18.247301	784.969092	-37.917388	12.703054	35.800112	25.406738	45.000000	-45.000000	-1879.717154	-1729.548212	22.541283	180.000000	1082.996469	-170.145757	12.154730	13.424539	-13.633071	-45.000000	-35.432400	45.000000	-45.000000	-3858.866510	-2085.409160	24.957463	27.426577	-10.908815	44.896123	11.886518	-13.522417	
8.1300	18.957032	34.853691	57.028616	17.643918	785.403800	-38.079514	12.722768	35.800518	25.476499	45.000000	-45.000000	-1879.800606	-1729.515000	22.569136	180.000000	1082.968993	-170.349779	12.138611	13.408649	-13.579590	-45.000000	-35.484938	45.000000	-45.000000	-3858.849406	-2085.337948	25.011872	27.625347	-10.886176	44.847963	11.895681	-13.557426	
8.1400	19.042658	34.868885	56.921802	16.998180	785.883378	-38.262308	12.747130	35.804607	25.550625	45.000000	-45.000000	-1879.891022	-1729.475720	22.601902	180.000000	1082.941470	-170.563675	12.125449	13.389342	-13.519508	-45.000000	-35.539074	45.000000	-45.000000	-3858.828896	-2085.257876	25.068955	27.840240	-10.858388	44.816974	11.906465	-13.593140	
8.1500	19.137585	34.876897	56.805181	16.312902	786.406981	-38.461286	12.770075	35.797859	25.638228	45.000000	-45.000000	-1879.987031	-1729.434642	22.635324	180.000000	1082.910124	-170.784429	12.111100	13.385063	-13.454389	-45.000000	-35.609582	45.000000	-45.000000	-3858.804699	-2085.180246	25.125114	28.070866	-10.823744	44.804708	11.908486	-13.641493	
8.1600	19.234388	34.881271	56.684945	15.590031	786.973045	-38.668252	12.798005	35.797967	25.732607	45.000000	-45.000000	-1880.099992	-1729.394917	22.677758	180.000000	1082.877821	-171.010605	12.103368	13.381942	-13.386169	-45.000000	-35.687169	45.000000	-45.000000	-3858.777073	-2085.095646	25.187522	28.323686	-10.780788	44.814732	11.917430	-13.695403	
8.1700	19.332521	34.881140	56.562777	14.830355	787.579651	-38.872076	12.828476	35.793794	25.833107	45.000000	-45.000000	-1880.214298	-1729.349267	22.717483	180.000000	1082.843351	-171.238970	12.097013	13.379303	-13.316734	-45.000000	-35.764941	45.000000	-45.000000	-3858.751524	-2084.998741	25.250955	28.587533	-10.732332	44.846648	11.914697	-13.754643	
8.1800	19.435354	34.881770	56.433090	14.031744	788.224809	-39.062640	12.863305	35.799644	25.943620	45.000000	-45.000000	-1880.350115	-1729.306755	22.765337	180.000000	1082.806787	-171.466040	12.100516	13.375565	-13.247398	-45.000000	-35.846170	45.000000	-45.000000	-3858.725776	-2084.899276	25.320674	28.868081	-10.671466	44.898708	11.920062	-13.823972	
8.1900	19.534379	34.884228	56.304054	13.190994	788.906475	-39.233309	12.901550	35.801842	26.052942	45.000000	-45.000000	-1880.483814	-1729.257020	22.806276	180.000000	1082.764136	-171.687238	12.108168	13.367455	-13.177696	-45.000000	-35.938800	45.000000	-45.000000	-3858.704563	-2084.793512	25.383943	29.157033	-10.602460	44.966996	11.910814	-13.899357	
8.2000	19.635765	34.886442	56.166949	12.304065	789.622066	-39.384229	12.939608	35.809032	26.168151	45.000000	-45.000000	-1880.629964	-1729.208862	22.851989	180.000000	1082.721639	-171.899127	12.123472	13.360681	-13.103136	-45.000000	-36.038055	45.000000	-45.000000	-3858.683135	-2084.685171	25.449301	29.449790	-10.526880	45.048110	11.908096	-13.986785	
8.2100	19.731572	34.888789	56.035621	11.368533	790.368325	-39.520292	12.978037	35.811680	26.278420	45.000000	-45.000000	-1880.764237	-1729.148075	22.888172	180.000000	1082.679000	-172.101378	12.141806	13.343524	-13.023490	-45.000000	-36.135604	45.000000	-45.000000	-3858.664696	-2084.564615	25.505101	29.736070	-10.451807	45.136931	11.890688	-14.075178	
8.2200	19.838859	34.883885	55.884633	10.384618	791.140992	-39.648518	13.011035	35.814758	26.403709	45.000000	-45.000000	-1880.914231	-1729.093303	22.937061	180.000000	1082.644442	-172.292541	12.167049	13.341088	-12.933079	-45.000000	-36.239870	45.000000	-45.000000	-3858.637327	-2084.449272	25.570739	30.021840	-10.381560	45.223691	11.891715	-14.185798	
8.2300	19.937244	34.879626	55.734772	9.355907	791.935400	-39.774059	13.044610	35.814824	26.519850	45.000000	-45.000000	-1881.056191	-1729.032478	22.978442	180.000000	1082.607014	-172.475267	12.197862	13.330563	-12.838237	-45.000000	-36.353575	45.000000	-45.000000	-3858.611287	-2084.329734	25.630442	30.306381	-10.317377	45.298081	11.881309	-14.294418	
8.2400	20.036262	34.868715	55.575769	8.287496	792.747041	-39.899247	13.073440	35.814748	26.640969	45.000000	-45.000000	-1881.205689	-1728.973926	23.025602	180.000000	1082.572263	-172.651840	12.236022	13.325913	-12.735181	-45.000000	-36.463581	45.000000	-45.000000	-3858.582226	-2084.207320	25.699268	30.583616	-10.262924	45.349667	11.881894	-14.412613	
8.2500	20.127893	34.855084	55.421670	7.184038	793.572820	-40.023044	13.102760	35.810676	26.753553	45.000000	-45.000000	-1881.347681	-1728.908674	23.066448	180.000000	1082.534912	-172.826619	12.279049	13.316315	-12.631172	-45.000000	-36.568139	45.000000	-45.000000	-3858.551419	-2084.080668	25.762472	30.855405	-10.217220	45.368654	11.875011	-14.527373	
8.2600	20.232194	34.829385	55.241803	6.049039	794.411655	-40.142869	13.127536	35.803392	26.879238	45.000000	-45.000000	-1881.505530	-1728.856142	23.121362	180.000000	1082.503250	-172.999027	12.328463	13.333616	-12.523992	-45.000000	-36.677877	45.000000	-45.000000	-3858.509526	-2083.963803	25.841360	31.131347	-10.184367	45.347285	11.892062	-14.668195	
